<svg width="24" height="10" viewBox="0 0 24 10" fill="none" xmlns="http://www.w3.org/2000/svg">
<path d="M2.51748 1.66667V3.33333H7.54642C7.89837 3.33333 8.12723 3.30213 8.23299 3.2403C8.33872 3.17826 8.39161 3.06301 8.39161 2.89466V2.10537C8.39161 1.94437 8.33735 1.83101 8.22882 1.76527C8.12028 1.69954 7.89281 1.66667 7.54642 1.66667H2.51748ZM2.51748 5.83333V7.5H7.49847C7.87576 7.5 8.11894 7.46329 8.22802 7.38943C8.33707 7.31572 8.39161 7.17103 8.39161 6.95528V6.37101C8.39161 6.15936 8.3362 6.01683 8.22536 5.94341C8.11452 5.87004 7.87222 5.83333 7.49847 5.83333H2.51748ZM0 10V0H8.46967C9.28377 0 9.88165 0.166848 10.2633 0.50052C10.645 0.834211 10.8358 1.35177 10.8358 2.05319V3.22845C10.8358 3.73747 10.6749 4.1477 10.3532 4.45911C10.0314 4.77057 9.63887 4.90304 9.17562 4.85658C9.66097 4.81019 10.0712 4.96592 10.4064 5.32402C10.7415 5.68207 10.9091 6.14041 10.9091 6.69899V7.92885C10.9091 8.63028 10.6522 9.15083 10.1386 9.4905C9.62492 9.83017 8.8678 10 7.86722 10H0Z" fill="#ef4444"/>
<path d="M12 2.4631C12 1.54145 12.1795 0.900502 12.5384 0.540299C12.8973 0.180108 13.5626 0 14.5341 0H21.4659C22.4351 0 23.0998 0.18059 23.4599 0.541746C23.8199 0.902926 24 1.54338 24 2.4631V7.53686C24 8.46515 23.8203 9.10773 23.461 9.46468C23.1017 9.82156 22.4366 10 21.4659 10H14.5341C13.5611 10 12.8954 9.82205 12.5373 9.46608C12.1791 9.11018 12 8.4671 12 7.53686V2.4631ZM14.4 7.5H21.6V1.66667H14.4V7.5Z" fill="#ef4444"/>
</svg>
